<svg width="139" height="94" viewBox="0 0 139 94" fill="none" xmlns="http://www.w3.org/2000/svg">
<g filter="url(#filter0_d_1_1532)">
<rect x="20" y="16" width="99" height="54" rx="10" fill="white" shape-rendering="crispEdges"/>
<path d="M52.904 46.728H48.248L47.448 49H45.544L49.528 37.864H51.64L55.624 49H53.704L52.904 46.728ZM52.392 45.24L50.584 40.072L48.76 45.24H52.392ZM56.7483 44.552C56.7483 43.6667 56.9296 42.8827 57.2923 42.2C57.6656 41.5173 58.1669 40.9893 58.7963 40.616C59.4363 40.232 60.1456 40.04 60.9243 40.04C61.5003 40.04 62.0656 40.168 62.6203 40.424C63.1856 40.6693 63.6336 41 63.9643 41.416V37.16H65.8043V49H63.9643V47.672C63.6656 48.0987 63.2496 48.4507 62.7163 48.728C62.1936 49.0053 61.5909 49.144 60.9083 49.144C60.1403 49.144 59.4363 48.952 58.7963 48.568C58.1669 48.1733 57.6656 47.6293 57.2923 46.936C56.9296 46.232 56.7483 45.4373 56.7483 44.552ZM63.9643 44.584C63.9643 43.976 63.8363 43.448 63.5803 43C63.3349 42.552 63.0096 42.2107 62.6043 41.976C62.1989 41.7413 61.7616 41.624 61.2923 41.624C60.8229 41.624 60.3856 41.7413 59.9803 41.976C59.5749 42.2 59.2443 42.536 58.9883 42.984C58.7429 43.4213 58.6203 43.944 58.6203 44.552C58.6203 45.16 58.7429 45.6933 58.9883 46.152C59.2443 46.6107 59.5749 46.9627 59.9803 47.208C60.3963 47.4427 60.8336 47.56 61.2923 47.56C61.7616 47.56 62.1989 47.4427 62.6043 47.208C63.0096 46.9733 63.3349 46.632 63.5803 46.184C63.8363 45.7253 63.9643 45.192 63.9643 44.584ZM67.592 44.552C67.592 43.6667 67.7733 42.8827 68.136 42.2C68.5093 41.5173 69.0107 40.9893 69.64 40.616C70.28 40.232 70.9893 40.04 71.768 40.04C72.344 40.04 72.9093 40.168 73.464 40.424C74.0293 40.6693 74.4773 41 74.808 41.416V37.16H76.648V49H74.808V47.672C74.5093 48.0987 74.0933 48.4507 73.56 48.728C73.0373 49.0053 72.4347 49.144 71.752 49.144C70.984 49.144 70.28 48.952 69.64 48.568C69.0107 48.1733 68.5093 47.6293 68.136 46.936C67.7733 46.232 67.592 45.4373 67.592 44.552ZM74.808 44.584C74.808 43.976 74.68 43.448 74.424 43C74.1787 42.552 73.8533 42.2107 73.448 41.976C73.0427 41.7413 72.6053 41.624 72.136 41.624C71.6667 41.624 71.2293 41.7413 70.824 41.976C70.4187 42.2 70.088 42.536 69.832 42.984C69.5867 43.4213 69.464 43.944 69.464 44.552C69.464 45.16 69.5867 45.6933 69.832 46.152C70.088 46.6107 70.4187 46.9627 70.824 47.208C71.24 47.4427 71.6773 47.56 72.136 47.56C72.6053 47.56 73.0427 47.4427 73.448 47.208C73.8533 46.9733 74.1787 46.632 74.424 46.184C74.68 45.7253 74.808 45.192 74.808 44.584ZM91.792 43.992H88.56V47.304H86.864V43.992H83.632V42.456H86.864V39.144H88.56V42.456H91.792V43.992Z" fill="#1AC84B"/>
</g>
<defs>
<filter id="filter0_d_1_1532" x="0" y="0" width="139" height="94" filterUnits="userSpaceOnUse" color-interpolation-filters="sRGB">
<feFlood flood-opacity="0" result="BackgroundImageFix"/>
<feColorMatrix in="SourceAlpha" type="matrix" values="0 0 0 0 0 0 0 0 0 0 0 0 0 0 0 0 0 0 127 0" result="hardAlpha"/>
<feOffset dy="4"/>
<feGaussianBlur stdDeviation="10"/>
<feComposite in2="hardAlpha" operator="out"/>
<feColorMatrix type="matrix" values="0 0 0 0 0 0 0 0 0 0 0 0 0 0 0 0 0 0 0.1 0"/>
<feBlend mode="normal" in2="BackgroundImageFix" result="effect1_dropShadow_1_1532"/>
<feBlend mode="normal" in="SourceGraphic" in2="effect1_dropShadow_1_1532" result="shape"/>
</filter>
</defs>
</svg>
