<svg width="21" height="20" viewBox="0 0 21 20" fill="none" xmlns="http://www.w3.org/2000/svg">
<path opacity="0.75" d="M20.3231 7.04257L14.0447 6.1301L11.238 0.440169C11.1614 0.284382 11.0353 0.158269 10.8795 0.0816118C10.4888 -0.111267 10.014 0.0494654 9.81863 0.440169L7.012 6.1301L0.733535 7.04257C0.560438 7.0673 0.402179 7.1489 0.281011 7.27254C0.134526 7.4231 0.0538061 7.62566 0.0565882 7.8357C0.0593702 8.04575 0.145427 8.24609 0.295848 8.39272L4.8384 12.8215L3.7652 19.0753C3.74003 19.2207 3.75613 19.3703 3.81167 19.5071C3.86721 19.6439 3.95996 19.7624 4.07941 19.8492C4.19887 19.9359 4.34024 19.9875 4.4875 19.998C4.63477 20.0085 4.78203 19.9775 4.91258 19.9086L10.5283 16.9561L16.1441 19.9086C16.2974 19.9902 16.4754 20.0174 16.6461 19.9877C17.0763 19.9135 17.3656 19.5055 17.2915 19.0753L16.2183 12.8215L20.7608 8.39272C20.8845 8.27156 20.9661 8.1133 20.9908 7.9402C21.0576 7.50746 20.7559 7.10686 20.3231 7.04257Z" fill="#1AC84B"/>
</svg>
